<svg width="70" height="43" viewBox="0 0 70 43" fill="none" xmlns="http://www.w3.org/2000/svg">
<path fill-rule="evenodd" clip-rule="evenodd" d="M45.0398 25.5249C47.6685 28.0792 49.2037 29.571 49.2037 24.9745C49.2037 15.9881 42.8003 0 34.9012 0C27.0021 0 20.5986 15.9881 20.5986 24.9745C20.5986 29.571 22.1338 28.0792 24.7625 25.5249C26.3547 23.9778 28.3479 22.0409 30.6441 20.8309C30.4489 20.0463 30.4531 19.2259 31.0954 18.5802L32.146 17.5239C31.7544 14.5823 32.6758 11.7159 34.0826 10.3016L35.0303 9.3488L35.9781 10.3017C37.3843 11.7155 38.3066 14.5825 37.9151 17.5241L38.9659 18.5805C39.6416 19.2598 39.6117 20.1331 39.3855 20.9535C41.5861 22.1689 43.5004 24.0291 45.0398 25.5249ZM35.0304 13.6914C34.7844 13.6914 34.5485 13.7897 34.3746 13.9645C34.2006 14.1394 34.1029 14.3766 34.1029 14.6239C34.1029 14.8712 34.2007 15.1084 34.3746 15.2833C34.5486 15.4582 34.7845 15.5565 35.0305 15.5565C35.2765 15.5565 35.5124 15.4583 35.6864 15.2834C35.8603 15.1085 35.958 14.8713 35.958 14.624C35.958 14.3767 35.8603 14.1395 35.6863 13.9646C35.5124 13.7897 35.2764 13.6914 35.0304 13.6914Z" fill="url(#paint0_linear_6196_93921)">
</path>
<path d="M34.2397 23.5384L34.2396 22.8561L36.2073 22.8562L36.2073 23.5384C36.2073 24.6328 35.2236 25.9263 35.2236 25.9263C35.2236 25.9263 34.2397 24.5235 34.2397 23.5384Z" fill="url(#paint1_linear_6196_93921)">
</path>
<mask id="path-3-outside-1_6196_93921" maskUnits="userSpaceOnUse" x="0" y="31.6901" width="70" height="11" fill="black">
<rect fill="white" y="31.6901" width="70" height="11"></rect>
<path d="M1 39.9163L3.35609 33.6503C3.46168 33.3797 3.60688 33.1817 3.79167 33.0563C3.97646 32.931 4.19095 32.8683 4.43514 32.8683C4.67933 32.8683 4.89382 32.931 5.07861 33.0563C5.27 33.1751 5.41519 33.3698 5.51419 33.6404L7.88018 39.9163H6.84073L6.23686 38.2434H2.61362L1.99985 39.9163H1ZM2.91061 37.402H5.94977L4.71233 33.967C4.67933 33.8813 4.64303 33.8153 4.60343 33.7691C4.56383 33.7229 4.50774 33.6998 4.43514 33.6998C4.36914 33.6998 4.31634 33.7229 4.27675 33.7691C4.23715 33.8153 4.20415 33.8813 4.17775 33.967L2.91061 37.402Z"></path>
<path d="M11.1789 34.7491C11.5617 34.7491 11.9115 34.8118 12.2282 34.9371C12.545 35.0559 12.8189 35.2341 13.0499 35.4717C13.2809 35.7093 13.4591 35.9963 13.5845 36.3329C13.7165 36.6629 13.7825 37.0357 13.7825 37.4515C13.7825 37.9728 13.6736 38.4282 13.4558 38.8175C13.2446 39.2069 12.9542 39.5072 12.5846 39.7183C12.215 39.9295 11.796 40.0351 11.3274 40.0351C11.07 40.0351 10.8225 39.9922 10.5849 39.9064C10.3539 39.8206 10.146 39.7018 9.96125 39.55C9.78305 39.3917 9.63786 39.2135 9.52567 39.0155H9.50587V42.0941H8.59511V37.4218C8.59511 36.8542 8.7073 36.3725 8.93169 35.9765C9.16268 35.5806 9.47287 35.277 9.86225 35.0658C10.2516 34.8546 10.6905 34.7491 11.1789 34.7491ZM11.1789 35.5311C10.8753 35.5311 10.5948 35.607 10.3374 35.7588C10.0866 35.9105 9.88535 36.125 9.73356 36.4022C9.58836 36.6794 9.51577 37.006 9.51577 37.3822C9.51577 37.7649 9.58836 38.0982 9.73356 38.382C9.88535 38.6591 10.0866 38.8736 10.3374 39.0254C10.5948 39.1772 10.8786 39.2531 11.1888 39.2531C11.5056 39.2531 11.7894 39.1739 12.0401 39.0155C12.2909 38.8571 12.4889 38.6393 12.6341 38.3622C12.7859 38.085 12.8618 37.7616 12.8618 37.3921C12.8618 37.0093 12.7859 36.6794 12.6341 36.4022C12.4823 36.125 12.2777 35.9105 12.0203 35.7588C11.7696 35.607 11.4891 35.5311 11.1789 35.5311Z"></path>
<path d="M17.5014 34.7491C17.8842 34.7491 18.234 34.8118 18.5508 34.9371C18.8676 35.0559 19.1415 35.2341 19.3725 35.4717C19.6034 35.7093 19.7816 35.9963 19.907 36.3329C20.039 36.6629 20.105 37.0357 20.105 37.4515C20.105 37.9728 19.9961 38.4282 19.7783 38.8175C19.5671 39.2069 19.2768 39.5072 18.9072 39.7183C18.5376 39.9295 18.1185 40.0351 17.6499 40.0351C17.3925 40.0351 17.1451 39.9922 16.9075 39.9064C16.6765 39.8206 16.4686 39.7018 16.2838 39.55C16.1056 39.3917 15.9604 39.2135 15.8482 39.0155H15.8284V42.0941H14.9177V37.4218C14.9177 36.8542 15.0299 36.3725 15.2542 35.9765C15.4852 35.5806 15.7954 35.277 16.1848 35.0658C16.5742 34.8546 17.0131 34.7491 17.5014 34.7491ZM17.5014 35.5311C17.1979 35.5311 16.9174 35.607 16.66 35.7588C16.4092 35.9105 16.2079 36.125 16.0561 36.4022C15.9109 36.6794 15.8383 37.006 15.8383 37.3822C15.8383 37.7649 15.9109 38.0982 16.0561 38.382C16.2079 38.6591 16.4092 38.8736 16.66 39.0254C16.9174 39.1772 17.2012 39.2531 17.5113 39.2531C17.8281 39.2531 18.1119 39.1739 18.3627 39.0155C18.6135 38.8571 18.8115 38.6393 18.9567 38.3622C19.1085 38.085 19.1844 37.7616 19.1844 37.3921C19.1844 37.0093 19.1085 36.6794 18.9567 36.4022C18.8049 36.125 18.6003 35.9105 18.3429 35.7588C18.0921 35.607 17.8116 35.5311 17.5014 35.5311Z"></path>
<path d="M21.2402 39.9163V36.3032C21.2402 35.8544 21.3656 35.5047 21.6164 35.2539C21.8738 34.9965 22.2269 34.8678 22.6757 34.8678H23.7151V35.6499H22.8439C22.6262 35.6499 22.4546 35.7126 22.3292 35.8379C22.2104 35.9633 22.151 36.1382 22.151 36.3626V39.9163H21.2402Z"></path>
<path d="M26.9328 40.0351C26.418 40.0351 25.9626 39.9196 25.5666 39.6886C25.1706 39.4511 24.8572 39.1343 24.6262 38.7383C24.3952 38.3358 24.2797 37.887 24.2797 37.3921C24.2797 36.8971 24.3952 36.4517 24.6262 36.0557C24.8572 35.6532 25.1706 35.3364 25.5666 35.1054C25.9626 34.8678 26.418 34.7491 26.9328 34.7491C27.4475 34.7491 27.9029 34.8678 28.2989 35.1054C28.7015 35.3364 29.015 35.6499 29.2394 36.0458C29.4703 36.4418 29.5858 36.8905 29.5858 37.3921C29.5858 37.887 29.4703 38.3358 29.2394 38.7383C29.015 39.1343 28.7015 39.4511 28.2989 39.6886C27.9029 39.9196 27.4475 40.0351 26.9328 40.0351ZM26.9328 39.2531C27.2825 39.2531 27.5861 39.1706 27.8435 39.0056C28.1009 38.8406 28.3022 38.6195 28.4474 38.3424C28.5926 38.0586 28.6652 37.7418 28.6652 37.3921C28.6652 37.0423 28.5926 36.7288 28.4474 36.4517C28.3022 36.1679 28.1009 35.9435 27.8435 35.7785C27.5861 35.6136 27.2825 35.5311 26.9328 35.5311C26.5896 35.5311 26.286 35.6136 26.022 35.7785C25.7646 35.9435 25.5633 36.1679 25.4181 36.4517C25.2729 36.7288 25.2003 37.0423 25.2003 37.3921C25.2003 37.7418 25.2729 38.0586 25.4181 38.3424C25.5633 38.6195 25.7646 38.8406 26.022 39.0056C26.286 39.1706 26.5896 39.2531 26.9328 39.2531Z"></path>
<path d="M32.8525 40.0351C32.3641 40.0351 31.9417 39.9196 31.5853 39.6886C31.2289 39.4511 30.955 39.131 30.7637 38.7284C30.5723 38.3259 30.4766 37.8804 30.4766 37.3921C30.4766 36.8971 30.5822 36.4517 30.7934 36.0557C31.0045 35.6532 31.3081 35.3364 31.7041 35.1054C32.1001 34.8678 32.5753 34.7491 33.1296 34.7491C33.6642 34.7491 34.1229 34.8645 34.5057 35.0955C34.8885 35.3265 35.1821 35.64 35.3867 36.0359C35.5979 36.4319 35.7035 36.874 35.7035 37.3624V39.9163H34.7829V38.8868H34.7631C34.6641 39.0782 34.5288 39.263 34.3572 39.4412C34.1922 39.6127 33.9843 39.7546 33.7335 39.8668C33.4827 39.979 33.189 40.0351 32.8525 40.0351ZM33.09 39.2531C33.42 39.2531 33.7104 39.1739 33.9612 39.0155C34.2186 38.8505 34.4166 38.6261 34.5552 38.3424C34.7004 38.052 34.773 37.7286 34.773 37.3723C34.773 37.0225 34.7037 36.709 34.5651 36.4319C34.4331 36.1547 34.2417 35.9369 33.9909 35.7785C33.7401 35.6136 33.4464 35.5311 33.1098 35.5311C32.7535 35.5311 32.4466 35.6136 32.1892 35.7785C31.9384 35.9435 31.7437 36.1679 31.6051 36.4517C31.4731 36.7288 31.4071 37.0456 31.4071 37.402C31.4071 37.7451 31.4731 38.0586 31.6051 38.3424C31.7371 38.6195 31.9285 38.8406 32.1793 39.0056C32.4301 39.1706 32.7337 39.2531 33.09 39.2531Z"></path>
<path d="M39.5988 39.9163C39.0775 39.9163 38.6122 39.8041 38.203 39.5797C37.7938 39.3554 37.4704 39.0551 37.2328 38.6789C36.9953 38.2962 36.8765 37.8672 36.8765 37.3921C36.8765 36.9169 36.9953 36.4913 37.2328 36.1151C37.4704 35.7324 37.7938 35.4288 38.203 35.2044C38.6122 34.98 39.0775 34.8678 39.5988 34.8678H40.1928V35.6499H39.5691C39.2326 35.6499 38.929 35.7291 38.6584 35.8874C38.3944 36.0392 38.1832 36.2471 38.0248 36.5111C37.873 36.775 37.7971 37.0687 37.7971 37.3921C37.7971 37.7154 37.873 38.0091 38.0248 38.2731C38.1832 38.5371 38.3944 38.7482 38.6584 38.9066C38.929 39.0584 39.2326 39.1343 39.5691 39.1343H40.1928V39.9163H39.5988Z"></path>
<path d="M41.2333 39.9163V32.6901H42.1441V35.5212C42.3487 35.2572 42.5962 35.0625 42.8866 34.9371C43.1835 34.8118 43.4904 34.7491 43.8072 34.7491C44.256 34.7491 44.6454 34.8447 44.9754 35.0361C45.3053 35.2209 45.5627 35.4816 45.7475 35.8181C45.9323 36.1547 46.0247 36.5474 46.0247 36.9961V39.9163H45.114V37.006C45.114 36.7025 45.0447 36.4418 44.9061 36.224C44.7675 35.9996 44.5827 35.828 44.3517 35.7093C44.1273 35.5905 43.8864 35.5311 43.629 35.5311C43.3716 35.5311 43.1308 35.5905 42.9064 35.7093C42.682 35.8214 42.4972 35.9864 42.352 36.2042C42.2134 36.422 42.1441 36.6827 42.1441 36.9862V39.9163H41.2333Z"></path>
<path d="M52.9441 39.9163C52.5679 39.9163 52.2412 39.8371 51.9641 39.6787C51.6935 39.5137 51.4823 39.2927 51.3305 39.0155C51.1853 38.7317 51.1127 38.415 51.1127 38.0652V33.8285H49.0041V32.987H54.1717V33.8285H52.063V38.184C52.063 38.4414 52.1422 38.6558 52.3006 38.8274C52.4656 38.9924 52.6834 39.0749 52.954 39.0749H53.4094V39.9163H52.9441Z"></path>
<path d="M57.1965 39.9163C56.6421 39.9163 56.1505 39.814 55.7215 39.6094C55.2925 39.3983 54.9559 39.1046 54.7117 38.7284C54.4741 38.3457 54.3553 37.9002 54.3553 37.3921C54.3553 36.8905 54.4576 36.4418 54.6622 36.0458C54.8668 35.6433 55.1506 35.3265 55.5136 35.0955C55.8766 34.8645 56.2989 34.7491 56.7807 34.7491C57.3021 34.7491 57.7344 34.8612 58.0776 35.0856C58.4273 35.31 58.688 35.6136 58.8596 35.9963C59.0312 36.3725 59.117 36.7948 59.117 37.2634C59.117 37.336 59.1137 37.4119 59.1071 37.4911C59.1071 37.5703 59.1005 37.6396 59.0873 37.6989H55.3255C55.3585 38.0091 55.4608 38.2731 55.6324 38.4909C55.804 38.702 56.0218 38.8637 56.2857 38.9759C56.5563 39.0815 56.8533 39.1343 57.1767 39.1343H58.4933V39.9163H57.1965ZM55.3156 37.0555H58.1964C58.1964 36.9301 58.1831 36.7981 58.1568 36.6596C58.1304 36.5144 58.0842 36.3758 58.0182 36.2438C57.9522 36.1052 57.8631 35.9831 57.7509 35.8775C57.6453 35.7654 57.51 35.6763 57.345 35.6103C57.1866 35.5443 56.9985 35.5113 56.7807 35.5113C56.5497 35.5113 56.3451 35.5575 56.1669 35.6499C55.9954 35.7357 55.8469 35.8544 55.7215 36.0062C55.5961 36.1514 55.5004 36.3164 55.4344 36.5012C55.3684 36.686 55.3288 36.8707 55.3156 37.0555Z"></path>
<path d="M62.7235 39.9163C62.2022 39.9163 61.7369 39.8041 61.3277 39.5797C60.9185 39.3554 60.5951 39.0551 60.3575 38.6789C60.12 38.2962 60.0012 37.8672 60.0012 37.3921C60.0012 36.9169 60.12 36.4913 60.3575 36.1151C60.5951 35.7324 60.9185 35.4288 61.3277 35.2044C61.7369 34.98 62.2022 34.8678 62.7235 34.8678H63.3175V35.6499H62.6938C62.3572 35.6499 62.0537 35.7291 61.7831 35.8874C61.5191 36.0392 61.3079 36.2471 61.1495 36.5111C60.9977 36.775 60.9218 37.0687 60.9218 37.3921C60.9218 37.7154 60.9977 38.0091 61.1495 38.2731C61.3079 38.5371 61.5191 38.7482 61.7831 38.9066C62.0537 39.0584 62.3572 39.1343 62.6938 39.1343H63.3175V39.9163H62.7235Z"></path>
<path d="M64.358 39.9163V32.6901H65.2688V35.5212C65.4734 35.2572 65.7209 35.0625 66.0113 34.9371C66.3082 34.8118 66.6151 34.7491 66.9319 34.7491C67.3807 34.7491 67.7701 34.8447 68.1001 35.0361C68.43 35.2209 68.6874 35.4816 68.8722 35.8181C69.057 36.1547 69.1494 36.5474 69.1494 36.9961V39.9163H68.2387V37.006C68.2387 36.7025 68.1694 36.4418 68.0308 36.224C67.8922 35.9996 67.7074 35.828 67.4764 35.7093C67.252 35.5905 67.0111 35.5311 66.7537 35.5311C66.4963 35.5311 66.2555 35.5905 66.0311 35.7093C65.8067 35.8214 65.6219 35.9864 65.4767 36.2042C65.3381 36.422 65.2688 36.6827 65.2688 36.9862V39.9163H64.358Z">
</path>
</mask>
<path d="M1 39.9163L3.35609 33.6503C3.46168 33.3797 3.60688 33.1817 3.79167 33.0563C3.97646 32.931 4.19095 32.8683 4.43514 32.8683C4.67933 32.8683 4.89382 32.931 5.07861 33.0563C5.27 33.1751 5.41519 33.3698 5.51419 33.6404L7.88018 39.9163H6.84073L6.23686 38.2434H2.61362L1.99985 39.9163H1ZM2.91061 37.402H5.94977L4.71233 33.967C4.67933 33.8813 4.64303 33.8153 4.60343 33.7691C4.56383 33.7229 4.50774 33.6998 4.43514 33.6998C4.36914 33.6998 4.31634 33.7229 4.27675 33.7691C4.23715 33.8153 4.20415 33.8813 4.17775 33.967L2.91061 37.402Z" fill="white"></path>
<path d="M11.1789 34.7491C11.5617 34.7491 11.9115 34.8118 12.2282 34.9371C12.545 35.0559 12.8189 35.2341 13.0499 35.4717C13.2809 35.7093 13.4591 35.9963 13.5845 36.3329C13.7165 36.6629 13.7825 37.0357 13.7825 37.4515C13.7825 37.9728 13.6736 38.4282 13.4558 38.8175C13.2446 39.2069 12.9542 39.5072 12.5846 39.7183C12.215 39.9295 11.796 40.0351 11.3274 40.0351C11.07 40.0351 10.8225 39.9922 10.5849 39.9064C10.3539 39.8206 10.146 39.7018 9.96125 39.55C9.78305 39.3917 9.63786 39.2135 9.52567 39.0155H9.50587V42.0941H8.59511V37.4218C8.59511 36.8542 8.7073 36.3725 8.93169 35.9765C9.16268 35.5806 9.47287 35.277 9.86225 35.0658C10.2516 34.8546 10.6905 34.7491 11.1789 34.7491ZM11.1789 35.5311C10.8753 35.5311 10.5948 35.607 10.3374 35.7588C10.0866 35.9105 9.88535 36.125 9.73356 36.4022C9.58836 36.6794 9.51577 37.006 9.51577 37.3822C9.51577 37.7649 9.58836 38.0982 9.73356 38.382C9.88535 38.6591 10.0866 38.8736 10.3374 39.0254C10.5948 39.1772 10.8786 39.2531 11.1888 39.2531C11.5056 39.2531 11.7894 39.1739 12.0401 39.0155C12.2909 38.8571 12.4889 38.6393 12.6341 38.3622C12.7859 38.085 12.8618 37.7616 12.8618 37.3921C12.8618 37.0093 12.7859 36.6794 12.6341 36.4022C12.4823 36.125 12.2777 35.9105 12.0203 35.7588C11.7696 35.607 11.4891 35.5311 11.1789 35.5311Z" fill="white"></path>
<path d="M17.5014 34.7491C17.8842 34.7491 18.234 34.8118 18.5508 34.9371C18.8676 35.0559 19.1415 35.2341 19.3725 35.4717C19.6034 35.7093 19.7816 35.9963 19.907 36.3329C20.039 36.6629 20.105 37.0357 20.105 37.4515C20.105 37.9728 19.9961 38.4282 19.7783 38.8175C19.5671 39.2069 19.2768 39.5072 18.9072 39.7183C18.5376 39.9295 18.1185 40.0351 17.6499 40.0351C17.3925 40.0351 17.1451 39.9922 16.9075 39.9064C16.6765 39.8206 16.4686 39.7018 16.2838 39.55C16.1056 39.3917 15.9604 39.2135 15.8482 39.0155H15.8284V42.0941H14.9177V37.4218C14.9177 36.8542 15.0299 36.3725 15.2542 35.9765C15.4852 35.5806 15.7954 35.277 16.1848 35.0658C16.5742 34.8546 17.0131 34.7491 17.5014 34.7491ZM17.5014 35.5311C17.1979 35.5311 16.9174 35.607 16.66 35.7588C16.4092 35.9105 16.2079 36.125 16.0561 36.4022C15.9109 36.6794 15.8383 37.006 15.8383 37.3822C15.8383 37.7649 15.9109 38.0982 16.0561 38.382C16.2079 38.6591 16.4092 38.8736 16.66 39.0254C16.9174 39.1772 17.2012 39.2531 17.5113 39.2531C17.8281 39.2531 18.1119 39.1739 18.3627 39.0155C18.6135 38.8571 18.8115 38.6393 18.9567 38.3622C19.1085 38.085 19.1844 37.7616 19.1844 37.3921C19.1844 37.0093 19.1085 36.6794 18.9567 36.4022C18.8049 36.125 18.6003 35.9105 18.3429 35.7588C18.0921 35.607 17.8116 35.5311 17.5014 35.5311Z" fill="white"></path>
<path d="M21.2402 39.9163V36.3032C21.2402 35.8544 21.3656 35.5047 21.6164 35.2539C21.8738 34.9965 22.2269 34.8678 22.6757 34.8678H23.7151V35.6499H22.8439C22.6262 35.6499 22.4546 35.7126 22.3292 35.8379C22.2104 35.9633 22.151 36.1382 22.151 36.3626V39.9163H21.2402Z" fill="white"></path>
<path d="M26.9328 40.0351C26.418 40.0351 25.9626 39.9196 25.5666 39.6886C25.1706 39.4511 24.8572 39.1343 24.6262 38.7383C24.3952 38.3358 24.2797 37.887 24.2797 37.3921C24.2797 36.8971 24.3952 36.4517 24.6262 36.0557C24.8572 35.6532 25.1706 35.3364 25.5666 35.1054C25.9626 34.8678 26.418 34.7491 26.9328 34.7491C27.4475 34.7491 27.9029 34.8678 28.2989 35.1054C28.7015 35.3364 29.015 35.6499 29.2394 36.0458C29.4703 36.4418 29.5858 36.8905 29.5858 37.3921C29.5858 37.887 29.4703 38.3358 29.2394 38.7383C29.015 39.1343 28.7015 39.4511 28.2989 39.6886C27.9029 39.9196 27.4475 40.0351 26.9328 40.0351ZM26.9328 39.2531C27.2825 39.2531 27.5861 39.1706 27.8435 39.0056C28.1009 38.8406 28.3022 38.6195 28.4474 38.3424C28.5926 38.0586 28.6652 37.7418 28.6652 37.3921C28.6652 37.0423 28.5926 36.7288 28.4474 36.4517C28.3022 36.1679 28.1009 35.9435 27.8435 35.7785C27.5861 35.6136 27.2825 35.5311 26.9328 35.5311C26.5896 35.5311 26.286 35.6136 26.022 35.7785C25.7646 35.9435 25.5633 36.1679 25.4181 36.4517C25.2729 36.7288 25.2003 37.0423 25.2003 37.3921C25.2003 37.7418 25.2729 38.0586 25.4181 38.3424C25.5633 38.6195 25.7646 38.8406 26.022 39.0056C26.286 39.1706 26.5896 39.2531 26.9328 39.2531Z" fill="white"></path>
<path d="M32.8525 40.0351C32.3641 40.0351 31.9417 39.9196 31.5853 39.6886C31.2289 39.4511 30.955 39.131 30.7637 38.7284C30.5723 38.3259 30.4766 37.8804 30.4766 37.3921C30.4766 36.8971 30.5822 36.4517 30.7934 36.0557C31.0045 35.6532 31.3081 35.3364 31.7041 35.1054C32.1001 34.8678 32.5753 34.7491 33.1296 34.7491C33.6642 34.7491 34.1229 34.8645 34.5057 35.0955C34.8885 35.3265 35.1821 35.64 35.3867 36.0359C35.5979 36.4319 35.7035 36.874 35.7035 37.3624V39.9163H34.7829V38.8868H34.7631C34.6641 39.0782 34.5288 39.263 34.3572 39.4412C34.1922 39.6127 33.9843 39.7546 33.7335 39.8668C33.4827 39.979 33.189 40.0351 32.8525 40.0351ZM33.09 39.2531C33.42 39.2531 33.7104 39.1739 33.9612 39.0155C34.2186 38.8505 34.4166 38.6261 34.5552 38.3424C34.7004 38.052 34.773 37.7286 34.773 37.3723C34.773 37.0225 34.7037 36.709 34.5651 36.4319C34.4331 36.1547 34.2417 35.9369 33.9909 35.7785C33.7401 35.6136 33.4464 35.5311 33.1098 35.5311C32.7535 35.5311 32.4466 35.6136 32.1892 35.7785C31.9384 35.9435 31.7437 36.1679 31.6051 36.4517C31.4731 36.7288 31.4071 37.0456 31.4071 37.402C31.4071 37.7451 31.4731 38.0586 31.6051 38.3424C31.7371 38.6195 31.9285 38.8406 32.1793 39.0056C32.4301 39.1706 32.7337 39.2531 33.09 39.2531Z" fill="white"></path>
<path d="M39.5988 39.9163C39.0775 39.9163 38.6122 39.8041 38.203 39.5797C37.7938 39.3554 37.4704 39.0551 37.2328 38.6789C36.9953 38.2962 36.8765 37.8672 36.8765 37.3921C36.8765 36.9169 36.9953 36.4913 37.2328 36.1151C37.4704 35.7324 37.7938 35.4288 38.203 35.2044C38.6122 34.98 39.0775 34.8678 39.5988 34.8678H40.1928V35.6499H39.5691C39.2326 35.6499 38.929 35.7291 38.6584 35.8874C38.3944 36.0392 38.1832 36.2471 38.0248 36.5111C37.873 36.775 37.7971 37.0687 37.7971 37.3921C37.7971 37.7154 37.873 38.0091 38.0248 38.2731C38.1832 38.5371 38.3944 38.7482 38.6584 38.9066C38.929 39.0584 39.2326 39.1343 39.5691 39.1343H40.1928V39.9163H39.5988Z" fill="white"></path>
<path d="M41.2333 39.9163V32.6901H42.1441V35.5212C42.3487 35.2572 42.5962 35.0625 42.8866 34.9371C43.1835 34.8118 43.4904 34.7491 43.8072 34.7491C44.256 34.7491 44.6454 34.8447 44.9754 35.0361C45.3053 35.2209 45.5627 35.4816 45.7475 35.8181C45.9323 36.1547 46.0247 36.5474 46.0247 36.9961V39.9163H45.114V37.006C45.114 36.7025 45.0447 36.4418 44.9061 36.224C44.7675 35.9996 44.5827 35.828 44.3517 35.7093C44.1273 35.5905 43.8864 35.5311 43.629 35.5311C43.3716 35.5311 43.1308 35.5905 42.9064 35.7093C42.682 35.8214 42.4972 35.9864 42.352 36.2042C42.2134 36.422 42.1441 36.6827 42.1441 36.9862V39.9163H41.2333Z" fill="white"></path>
<path d="M52.9441 39.9163C52.5679 39.9163 52.2412 39.8371 51.9641 39.6787C51.6935 39.5137 51.4823 39.2927 51.3305 39.0155C51.1853 38.7317 51.1127 38.415 51.1127 38.0652V33.8285H49.0041V32.987H54.1717V33.8285H52.063V38.184C52.063 38.4414 52.1422 38.6558 52.3006 38.8274C52.4656 38.9924 52.6834 39.0749 52.954 39.0749H53.4094V39.9163H52.9441Z" fill="white"></path>
<path d="M57.1965 39.9163C56.6421 39.9163 56.1505 39.814 55.7215 39.6094C55.2925 39.3983 54.9559 39.1046 54.7117 38.7284C54.4741 38.3457 54.3553 37.9002 54.3553 37.3921C54.3553 36.8905 54.4576 36.4418 54.6622 36.0458C54.8668 35.6433 55.1506 35.3265 55.5136 35.0955C55.8766 34.8645 56.2989 34.7491 56.7807 34.7491C57.3021 34.7491 57.7344 34.8612 58.0776 35.0856C58.4273 35.31 58.688 35.6136 58.8596 35.9963C59.0312 36.3725 59.117 36.7948 59.117 37.2634C59.117 37.336 59.1137 37.4119 59.1071 37.4911C59.1071 37.5703 59.1005 37.6396 59.0873 37.6989H55.3255C55.3585 38.0091 55.4608 38.2731 55.6324 38.4909C55.804 38.702 56.0218 38.8637 56.2857 38.9759C56.5563 39.0815 56.8533 39.1343 57.1767 39.1343H58.4933V39.9163H57.1965ZM55.3156 37.0555H58.1964C58.1964 36.9301 58.1831 36.7981 58.1568 36.6596C58.1304 36.5144 58.0842 36.3758 58.0182 36.2438C57.9522 36.1052 57.8631 35.9831 57.7509 35.8775C57.6453 35.7654 57.51 35.6763 57.345 35.6103C57.1866 35.5443 56.9985 35.5113 56.7807 35.5113C56.5497 35.5113 56.3451 35.5575 56.1669 35.6499C55.9954 35.7357 55.8469 35.8544 55.7215 36.0062C55.5961 36.1514 55.5004 36.3164 55.4344 36.5012C55.3684 36.686 55.3288 36.8707 55.3156 37.0555Z" fill="white"></path>
<path d="M62.7235 39.9163C62.2022 39.9163 61.7369 39.8041 61.3277 39.5797C60.9185 39.3554 60.5951 39.0551 60.3575 38.6789C60.12 38.2962 60.0012 37.8672 60.0012 37.3921C60.0012 36.9169 60.12 36.4913 60.3575 36.1151C60.5951 35.7324 60.9185 35.4288 61.3277 35.2044C61.7369 34.98 62.2022 34.8678 62.7235 34.8678H63.3175V35.6499H62.6938C62.3572 35.6499 62.0537 35.7291 61.7831 35.8874C61.5191 36.0392 61.3079 36.2471 61.1495 36.5111C60.9977 36.775 60.9218 37.0687 60.9218 37.3921C60.9218 37.7154 60.9977 38.0091 61.1495 38.2731C61.3079 38.5371 61.5191 38.7482 61.7831 38.9066C62.0537 39.0584 62.3572 39.1343 62.6938 39.1343H63.3175V39.9163H62.7235Z" fill="white"></path>
<path d="M64.358 39.9163V32.6901H65.2688V35.5212C65.4734 35.2572 65.7209 35.0625 66.0113 34.9371C66.3082 34.8118 66.6151 34.7491 66.9319 34.7491C67.3807 34.7491 67.7701 34.8447 68.1001 35.0361C68.43 35.2209 68.6874 35.4816 68.8722 35.8181C69.057 36.1547 69.1494 36.5474 69.1494 36.9961V39.9163H68.2387V37.006C68.2387 36.7025 68.1694 36.4418 68.0308 36.224C67.8922 35.9996 67.7074 35.828 67.4764 35.7093C67.252 35.5905 67.0111 35.5311 66.7537 35.5311C66.4963 35.5311 66.2555 35.5905 66.0311 35.7093C65.8067 35.8214 65.6219 35.9864 65.4767 36.2042C65.3381 36.422 65.2688 36.6827 65.2688 36.9862V39.9163H64.358Z" fill="white">
</path>
<path d="M1 39.9163L3.35609 33.6503C3.46168 33.3797 3.60688 33.1817 3.79167 33.0563C3.97646 32.931 4.19095 32.8683 4.43514 32.8683C4.67933 32.8683 4.89382 32.931 5.07861 33.0563C5.27 33.1751 5.41519 33.3698 5.51419 33.6404L7.88018 39.9163H6.84073L6.23686 38.2434H2.61362L1.99985 39.9163H1ZM2.91061 37.402H5.94977L4.71233 33.967C4.67933 33.8813 4.64303 33.8153 4.60343 33.7691C4.56383 33.7229 4.50774 33.6998 4.43514 33.6998C4.36914 33.6998 4.31634 33.7229 4.27675 33.7691C4.23715 33.8153 4.20415 33.8813 4.17775 33.967L2.91061 37.402Z" stroke="white" stroke-width="0.2" mask="url(#path-3-outside-1_6196_93921)"></path>
<path d="M11.1789 34.7491C11.5617 34.7491 11.9115 34.8118 12.2282 34.9371C12.545 35.0559 12.8189 35.2341 13.0499 35.4717C13.2809 35.7093 13.4591 35.9963 13.5845 36.3329C13.7165 36.6629 13.7825 37.0357 13.7825 37.4515C13.7825 37.9728 13.6736 38.4282 13.4558 38.8175C13.2446 39.2069 12.9542 39.5072 12.5846 39.7183C12.215 39.9295 11.796 40.0351 11.3274 40.0351C11.07 40.0351 10.8225 39.9922 10.5849 39.9064C10.3539 39.8206 10.146 39.7018 9.96125 39.55C9.78305 39.3917 9.63786 39.2135 9.52567 39.0155H9.50587V42.0941H8.59511V37.4218C8.59511 36.8542 8.7073 36.3725 8.93169 35.9765C9.16268 35.5806 9.47287 35.277 9.86225 35.0658C10.2516 34.8546 10.6905 34.7491 11.1789 34.7491ZM11.1789 35.5311C10.8753 35.5311 10.5948 35.607 10.3374 35.7588C10.0866 35.9105 9.88535 36.125 9.73356 36.4022C9.58836 36.6794 9.51577 37.006 9.51577 37.3822C9.51577 37.7649 9.58836 38.0982 9.73356 38.382C9.88535 38.6591 10.0866 38.8736 10.3374 39.0254C10.5948 39.1772 10.8786 39.2531 11.1888 39.2531C11.5056 39.2531 11.7894 39.1739 12.0401 39.0155C12.2909 38.8571 12.4889 38.6393 12.6341 38.3622C12.7859 38.085 12.8618 37.7616 12.8618 37.3921C12.8618 37.0093 12.7859 36.6794 12.6341 36.4022C12.4823 36.125 12.2777 35.9105 12.0203 35.7588C11.7696 35.607 11.4891 35.5311 11.1789 35.5311Z" stroke="white" stroke-width="0.2" mask="url(#path-3-outside-1_6196_93921)"></path>
<path d="M17.5014 34.7491C17.8842 34.7491 18.234 34.8118 18.5508 34.9371C18.8676 35.0559 19.1415 35.2341 19.3725 35.4717C19.6034 35.7093 19.7816 35.9963 19.907 36.3329C20.039 36.6629 20.105 37.0357 20.105 37.4515C20.105 37.9728 19.9961 38.4282 19.7783 38.8175C19.5671 39.2069 19.2768 39.5072 18.9072 39.7183C18.5376 39.9295 18.1185 40.0351 17.6499 40.0351C17.3925 40.0351 17.1451 39.9922 16.9075 39.9064C16.6765 39.8206 16.4686 39.7018 16.2838 39.55C16.1056 39.3917 15.9604 39.2135 15.8482 39.0155H15.8284V42.0941H14.9177V37.4218C14.9177 36.8542 15.0299 36.3725 15.2542 35.9765C15.4852 35.5806 15.7954 35.277 16.1848 35.0658C16.5742 34.8546 17.0131 34.7491 17.5014 34.7491ZM17.5014 35.5311C17.1979 35.5311 16.9174 35.607 16.66 35.7588C16.4092 35.9105 16.2079 36.125 16.0561 36.4022C15.9109 36.6794 15.8383 37.006 15.8383 37.3822C15.8383 37.7649 15.9109 38.0982 16.0561 38.382C16.2079 38.6591 16.4092 38.8736 16.66 39.0254C16.9174 39.1772 17.2012 39.2531 17.5113 39.2531C17.8281 39.2531 18.1119 39.1739 18.3627 39.0155C18.6135 38.8571 18.8115 38.6393 18.9567 38.3622C19.1085 38.085 19.1844 37.7616 19.1844 37.3921C19.1844 37.0093 19.1085 36.6794 18.9567 36.4022C18.8049 36.125 18.6003 35.9105 18.3429 35.7588C18.0921 35.607 17.8116 35.5311 17.5014 35.5311Z" stroke="white" stroke-width="0.2" mask="url(#path-3-outside-1_6196_93921)"></path>
<path d="M21.2402 39.9163V36.3032C21.2402 35.8544 21.3656 35.5047 21.6164 35.2539C21.8738 34.9965 22.2269 34.8678 22.6757 34.8678H23.7151V35.6499H22.8439C22.6262 35.6499 22.4546 35.7126 22.3292 35.8379C22.2104 35.9633 22.151 36.1382 22.151 36.3626V39.9163H21.2402Z" stroke="white" stroke-width="0.2" mask="url(#path-3-outside-1_6196_93921)"></path>
<path d="M26.9328 40.0351C26.418 40.0351 25.9626 39.9196 25.5666 39.6886C25.1706 39.4511 24.8572 39.1343 24.6262 38.7383C24.3952 38.3358 24.2797 37.887 24.2797 37.3921C24.2797 36.8971 24.3952 36.4517 24.6262 36.0557C24.8572 35.6532 25.1706 35.3364 25.5666 35.1054C25.9626 34.8678 26.418 34.7491 26.9328 34.7491C27.4475 34.7491 27.9029 34.8678 28.2989 35.1054C28.7015 35.3364 29.015 35.6499 29.2394 36.0458C29.4703 36.4418 29.5858 36.8905 29.5858 37.3921C29.5858 37.887 29.4703 38.3358 29.2394 38.7383C29.015 39.1343 28.7015 39.4511 28.2989 39.6886C27.9029 39.9196 27.4475 40.0351 26.9328 40.0351ZM26.9328 39.2531C27.2825 39.2531 27.5861 39.1706 27.8435 39.0056C28.1009 38.8406 28.3022 38.6195 28.4474 38.3424C28.5926 38.0586 28.6652 37.7418 28.6652 37.3921C28.6652 37.0423 28.5926 36.7288 28.4474 36.4517C28.3022 36.1679 28.1009 35.9435 27.8435 35.7785C27.5861 35.6136 27.2825 35.5311 26.9328 35.5311C26.5896 35.5311 26.286 35.6136 26.022 35.7785C25.7646 35.9435 25.5633 36.1679 25.4181 36.4517C25.2729 36.7288 25.2003 37.0423 25.2003 37.3921C25.2003 37.7418 25.2729 38.0586 25.4181 38.3424C25.5633 38.6195 25.7646 38.8406 26.022 39.0056C26.286 39.1706 26.5896 39.2531 26.9328 39.2531Z" stroke="white" stroke-width="0.2" mask="url(#path-3-outside-1_6196_93921)"></path>
<path d="M32.8525 40.0351C32.3641 40.0351 31.9417 39.9196 31.5853 39.6886C31.2289 39.4511 30.955 39.131 30.7637 38.7284C30.5723 38.3259 30.4766 37.8804 30.4766 37.3921C30.4766 36.8971 30.5822 36.4517 30.7934 36.0557C31.0045 35.6532 31.3081 35.3364 31.7041 35.1054C32.1001 34.8678 32.5753 34.7491 33.1296 34.7491C33.6642 34.7491 34.1229 34.8645 34.5057 35.0955C34.8885 35.3265 35.1821 35.64 35.3867 36.0359C35.5979 36.4319 35.7035 36.874 35.7035 37.3624V39.9163H34.7829V38.8868H34.7631C34.6641 39.0782 34.5288 39.263 34.3572 39.4412C34.1922 39.6127 33.9843 39.7546 33.7335 39.8668C33.4827 39.979 33.189 40.0351 32.8525 40.0351ZM33.09 39.2531C33.42 39.2531 33.7104 39.1739 33.9612 39.0155C34.2186 38.8505 34.4166 38.6261 34.5552 38.3424C34.7004 38.052 34.773 37.7286 34.773 37.3723C34.773 37.0225 34.7037 36.709 34.5651 36.4319C34.4331 36.1547 34.2417 35.9369 33.9909 35.7785C33.7401 35.6136 33.4464 35.5311 33.1098 35.5311C32.7535 35.5311 32.4466 35.6136 32.1892 35.7785C31.9384 35.9435 31.7437 36.1679 31.6051 36.4517C31.4731 36.7288 31.4071 37.0456 31.4071 37.402C31.4071 37.7451 31.4731 38.0586 31.6051 38.3424C31.7371 38.6195 31.9285 38.8406 32.1793 39.0056C32.4301 39.1706 32.7337 39.2531 33.09 39.2531Z" stroke="white" stroke-width="0.2" mask="url(#path-3-outside-1_6196_93921)"></path>
<path d="M39.5988 39.9163C39.0775 39.9163 38.6122 39.8041 38.203 39.5797C37.7938 39.3554 37.4704 39.0551 37.2328 38.6789C36.9953 38.2962 36.8765 37.8672 36.8765 37.3921C36.8765 36.9169 36.9953 36.4913 37.2328 36.1151C37.4704 35.7324 37.7938 35.4288 38.203 35.2044C38.6122 34.98 39.0775 34.8678 39.5988 34.8678H40.1928V35.6499H39.5691C39.2326 35.6499 38.929 35.7291 38.6584 35.8874C38.3944 36.0392 38.1832 36.2471 38.0248 36.5111C37.873 36.775 37.7971 37.0687 37.7971 37.3921C37.7971 37.7154 37.873 38.0091 38.0248 38.2731C38.1832 38.5371 38.3944 38.7482 38.6584 38.9066C38.929 39.0584 39.2326 39.1343 39.5691 39.1343H40.1928V39.9163H39.5988Z" stroke="white" stroke-width="0.2" mask="url(#path-3-outside-1_6196_93921)"></path>
<path d="M41.2333 39.9163V32.6901H42.1441V35.5212C42.3487 35.2572 42.5962 35.0625 42.8866 34.9371C43.1835 34.8118 43.4904 34.7491 43.8072 34.7491C44.256 34.7491 44.6454 34.8447 44.9754 35.0361C45.3053 35.2209 45.5627 35.4816 45.7475 35.8181C45.9323 36.1547 46.0247 36.5474 46.0247 36.9961V39.9163H45.114V37.006C45.114 36.7025 45.0447 36.4418 44.9061 36.224C44.7675 35.9996 44.5827 35.828 44.3517 35.7093C44.1273 35.5905 43.8864 35.5311 43.629 35.5311C43.3716 35.5311 43.1308 35.5905 42.9064 35.7093C42.682 35.8214 42.4972 35.9864 42.352 36.2042C42.2134 36.422 42.1441 36.6827 42.1441 36.9862V39.9163H41.2333Z" stroke="white" stroke-width="0.2" mask="url(#path-3-outside-1_6196_93921)"></path>
<path d="M52.9441 39.9163C52.5679 39.9163 52.2412 39.8371 51.9641 39.6787C51.6935 39.5137 51.4823 39.2927 51.3305 39.0155C51.1853 38.7317 51.1127 38.415 51.1127 38.0652V33.8285H49.0041V32.987H54.1717V33.8285H52.063V38.184C52.063 38.4414 52.1422 38.6558 52.3006 38.8274C52.4656 38.9924 52.6834 39.0749 52.954 39.0749H53.4094V39.9163H52.9441Z" stroke="white" stroke-width="0.2" mask="url(#path-3-outside-1_6196_93921)"></path>
<path d="M57.1965 39.9163C56.6421 39.9163 56.1505 39.814 55.7215 39.6094C55.2925 39.3983 54.9559 39.1046 54.7117 38.7284C54.4741 38.3457 54.3553 37.9002 54.3553 37.3921C54.3553 36.8905 54.4576 36.4418 54.6622 36.0458C54.8668 35.6433 55.1506 35.3265 55.5136 35.0955C55.8766 34.8645 56.2989 34.7491 56.7807 34.7491C57.3021 34.7491 57.7344 34.8612 58.0776 35.0856C58.4273 35.31 58.688 35.6136 58.8596 35.9963C59.0312 36.3725 59.117 36.7948 59.117 37.2634C59.117 37.336 59.1137 37.4119 59.1071 37.4911C59.1071 37.5703 59.1005 37.6396 59.0873 37.6989H55.3255C55.3585 38.0091 55.4608 38.2731 55.6324 38.4909C55.804 38.702 56.0218 38.8637 56.2857 38.9759C56.5563 39.0815 56.8533 39.1343 57.1767 39.1343H58.4933V39.9163H57.1965ZM55.3156 37.0555H58.1964C58.1964 36.9301 58.1831 36.7981 58.1568 36.6596C58.1304 36.5144 58.0842 36.3758 58.0182 36.2438C57.9522 36.1052 57.8631 35.9831 57.7509 35.8775C57.6453 35.7654 57.51 35.6763 57.345 35.6103C57.1866 35.5443 56.9985 35.5113 56.7807 35.5113C56.5497 35.5113 56.3451 35.5575 56.1669 35.6499C55.9954 35.7357 55.8469 35.8544 55.7215 36.0062C55.5961 36.1514 55.5004 36.3164 55.4344 36.5012C55.3684 36.686 55.3288 36.8707 55.3156 37.0555Z" stroke="white" stroke-width="0.2" mask="url(#path-3-outside-1_6196_93921)"></path>
<path d="M62.7235 39.9163C62.2022 39.9163 61.7369 39.8041 61.3277 39.5797C60.9185 39.3554 60.5951 39.0551 60.3575 38.6789C60.12 38.2962 60.0012 37.8672 60.0012 37.3921C60.0012 36.9169 60.12 36.4913 60.3575 36.1151C60.5951 35.7324 60.9185 35.4288 61.3277 35.2044C61.7369 34.98 62.2022 34.8678 62.7235 34.8678H63.3175V35.6499H62.6938C62.3572 35.6499 62.0537 35.7291 61.7831 35.8874C61.5191 36.0392 61.3079 36.2471 61.1495 36.5111C60.9977 36.775 60.9218 37.0687 60.9218 37.3921C60.9218 37.7154 60.9977 38.0091 61.1495 38.2731C61.3079 38.5371 61.5191 38.7482 61.7831 38.9066C62.0537 39.0584 62.3572 39.1343 62.6938 39.1343H63.3175V39.9163H62.7235Z" stroke="white" stroke-width="0.2" mask="url(#path-3-outside-1_6196_93921)"></path>
<path d="M64.358 39.9163V32.6901H65.2688V35.5212C65.4734 35.2572 65.7209 35.0625 66.0113 34.9371C66.3082 34.8118 66.6151 34.7491 66.9319 34.7491C67.3807 34.7491 67.7701 34.8447 68.1001 35.0361C68.43 35.2209 68.6874 35.4816 68.8722 35.8181C69.057 36.1547 69.1494 36.5474 69.1494 36.9961V39.9163H68.2387V37.006C68.2387 36.7025 68.1694 36.4418 68.0308 36.224C67.8922 35.9996 67.7074 35.828 67.4764 35.7093C67.252 35.5905 67.0111 35.5311 66.7537 35.5311C66.4963 35.5311 66.2555 35.5905 66.0311 35.7093C65.8067 35.8214 65.6219 35.9864 65.4767 36.2042C65.3381 36.422 65.2688 36.6827 65.2688 36.9862V39.9163H64.358Z" stroke="white" stroke-width="0.2" mask="url(#path-3-outside-1_6196_93921)"></path>
<defs>
<linearGradient id="paint0_linear_6196_93921" x1="34.9353" y1="-2.74123" x2="35.3798" y2="26.3511" gradientUnits="userSpaceOnUse"><stop stop-color="#F965D9"></stop><stop offset="1" stop-color="#F03685"></stop></linearGradient>
<linearGradient id="paint1_linear_6196_93921" x1="34.2396" y1="22.8561" x2="36.2849" y2="24.8223" gradientUnits="userSpaceOnUse"><stop offset="0.0001" stop-color="#F965D9"></stop><stop offset="0.0002" stop-color="#F965D9"></stop><stop offset="1" stop-color="#F03685"></stop>
</linearGradient></defs></svg>